<svg id="svg2" xmlns="http://www.w3.org/2000/svg" viewBox="0 0 2795.4 1756.81"><defs><style>.cls-1{fill:#d3d3d3;}</style></defs><title>blankUSmap3</title><g id="g2129"><path id="FL" class="cls-1" d="M2910.85,1395.75l8.75,22,13.85,29.17,18.71,27.66,13,18.57,16.29,15.8,13.37,10.51,5.69,8.59-3.18,4.26-2.18,4.19,10.76,22.25,9.68,8.28,9.26,15.85,12.37,17.11,15.95,24.36,5.81,23.14,4.36,36.81,2.42,5.33-0.18,10.56-7.17,4.57,1.46,5.91-1.53,6.14,1.58,7.41,2,5.87-7.71,10.64L3045,1746l-11.94,1.43-4.1,5.34-7.25,3.58-4.11-1.19-3.73-2.72-1.7-8.9-3.31-10.28-11.72-15.15-11.52-6.13-12.05-.07-2.18,4.19-10.53-12.74-2.85-10.82-9-11.85-5.76-3.07-4.49,6.87-5.57-.57-7.69-15-9.91-11.28-10.26-15.77-8.72-8.86-11.87-10.62,5.9-8,8.66-17.74-0.89-5-14.2-1.91-4.83,2.38,1.15,1.92,8.22,2.37-3.41,14.32-2.38,1.69-6.46-12-5.15-14.66-1.66-8.4,3.37-14.82-2.29-29.44-10.37-10.74-4.73-9.17-16.28-2.75-6.14-1.53-5.61-7.6-10.87-4.18-4.31-10.21-8.71-2.33-8.38-10.89-13.32-3.48-9.33-3.79-8,.62-12.28,3.46,0,6,2.73,2.8L2754,1483l-9.52.24-10.62,11.87-10.51,6.84-12,.93-9.67,4.77-1.66-8.4-5.45-5.6-9.25-2.8-5.34-4.1-25.88-10-23.88-3.67-13.32,3-18.34,2.93-18,7.92-10.59,2.73-2.66-24.79-8.45-5.37-5.91-5.06,0.26-9.56,31.12-6.43,78.14-15.1,20.8-3.62,16.84-.44,8.91,11.35,4.84,4.14,25.12-.35,33.24-4.59,66.09-9.15,16.65-3.39,14.13-1,1.2,8.94,12,1.58-0.15-14.91-6.07-13.58,2.77-2.49,15.89,0.18Zm70.46,405.64,7.33-2.58,3.93-1.06,3.93-7.58,6.85-5.55,4.11,1.19,5.32,0.59,1.5,3.15-10.44,4.58-12.62,5.5-6.94,4.3Zm40.46-18.7,4,3,8-7.15,15.46-14.25,10.55-12.87,6.14-21.06,2.59-5.47-0.32-10.52L3066,1716l-2.32,9-3.39,14.57-8.72,17-12.46,14-10,6.8Z" transform="translate(-559.97 -101.01)"/><path id="SC" class="cls-1" d="M2921,1293.83l-5.25,3.42-8.29-3.37-2.5-6.33-4.84-10.67-7.49-5.94-8.14-1.38-6.15-14.58-9.92-17.8-13.44-5-7-5.48-4.61-7.67-7-5.48-7.3-3.45-7.68-8.44-10-6.25-14.4-4.4-1.85-4.37-8.18-8.4-1.85-4.37-11.72-15.15-10.44,1.31-13.05-6.52-4.3-3.68-1.42-5.41,2-6.18,6.75-3.54-1.5-6.41,18.34-9.46,26.86-16.14,22.26-4.24,50.78-5.45,7.45,5.44L2883,1108l13.36-2.54L2935,1098l9.17,1.8,40.74,20.43,33.14,22.64L3002.59,1161l-6.51,19.58v19.58l-4.8,2.88-2.83,8.75-7.33,2.58-5.63,11.48-7.82,9.14-6.17,11-4.8,2.88-10.16,11.33-8.94,1.2,3.77,9.75-14.15,18.17Z" transform="translate(-559.97 -101.01)"/><path id="GA" class="cls-1" d="M2686.84,1141.36l-14.77,3.66-25.67,5.51-26.23,4.8,0.52,6.74,1,6.45,2.81,10.32,12.38,23.63,9.85,29.85,6,18.61,6.15,14.58,6.16,21.11,8,19,8.8,9.86,2.31,10.36,6.18,2,1,6.45-4.33,15.39-0.72,10.1,0,6,6,13.08,2.28,16.39-1.91,7.68,2.19,2.34,4.68,2.15,2.81,10.32,8.91,11.35,4.84,4.14,24.49-1.4,33.24-4.59,66.09-9.15,16.65-3.39,14.13-1,1.2,8.94,8.18,1.87,0-13.55-6.07-13.58,3.1-5.26,18.16,1.1,15.44-.21-3.9-19.25,4.58-31.48,3.48-13.32-2.12-7.87,8.79-20.07-1.9-4-5.74,2.63-8.29-3.37-2.5-6.33-4.84-10.67-7.49-5.94-8.14-1.38-6.15-14.58-10.55-18.85-13.44-5-7-5.48-4.61-7.67-7-5.48-7.3-3.45-7.68-8.44-10-6.25-14.4-4.4-1.85-4.37-8.18-8.4-1.85-4.37-11.65-14.33-10.44,1.31-13.48-8.4-4.3-3.68-1.42-5.41,2-6.18,7-4.38-3.79-3.5,0.17-.92-17.73,4.39-21.26,4.16Z" transform="translate(-559.97 -101.01)"/><path id="AL" class="cls-1" d="M2515.34,1492.5l-8.63-46.51-13-57.22-2.87-43.45-4.95-96-4.49-51.35-1-19.85,23.85-3,85.2-14.65,27.38-4.18,0.07,6.77,1,6.45,2.81,10.32,12.38,23.63,9.85,29.85,6,18.61,6.15,14.58,6.16,21.11,8,19,8.8,9.86,2.31,10.36,6.18,2,1,6.45-4.33,15.39-0.72,10.1,0,6,6,13.08,2.28,16.39-1.91,7.68,2.19,2.34,4.68,2.15,3.8,7.58L2680,1417.5l-20.8,3.62-78.14,15.1-31.8,6.84,0.6,11.6,5.91,5.06,8.45,5.37,3.7,24.35-16.49,9.27-8.56-.34,8-6.65-0.23-3L2539.77,1471l-7.14-1.45-3.44,13.82-3.33,8.79-2-.34Z" transform="translate(-559.97 -101.01)"/><path id="NC" class="cls-1" d="M3112.35,923.55l6.4,14.09,12.53,19.11,8.07,6.9,2.54,6.83-7.45,1.08,2.65,1.8v13.05l-7.67,4.61-1.49,6.64-3.29,9.29-11.09,5.88-7.56-.42-4.53-.15-5.3-3.6,1.31,3.91,0.23,3,6-.47,2.8,3.8-4.48,19.92,13-1,2.38,4.83,6.44-7.53,3.88-1.81-5.13,11.44-8.32,15.7-4,.31-3.61-1.23-8.33,2.65-15.38,8.72-18.68,18-9.35,15.28-4.44,20.42-0.92,7.6-14.35,2.62-16.51,5.43L2986,1117.38,2945.28,1097l-9.17-1.8-38.57,7.51-13,3.34-5.76-9.59-9.68-5.82L2818.3,1096l-22.26,4.24-26.86,16.14-18.34,9.46-4.91,1.39-17.73,4.39-21.26,4.16-20.84,3.12,0.57-12.63,5.14-4.92,8.33-2.65,1.1-11.63,12.31-9.49,11.63-5.42,12.12-12,13-7.53,1.26-9.64,11-12.9,2-.65s0.27,3.49,2.77,3.3a27.35,27.35,0,0,1,6.06.53l6.13-11.52,6.33-2.5,7.06,0.46,4.14-11.36,8.36-8.68,1-6.6-0.95-12.22,14.14,1.16,21.71-5.7,48.36-9.78,52.27-12.09,60.53-17.12,59.91-17.58,34.4-11.36Zm19.93,100.88,7.38-8.35,9.11-8.74,4.58-2.36V998.7l-3.47-18.8-5.05-6.89-2.44-5.58,2.19-.92,9.8,16.31,2.31,13.62L3157,1007l-10.11,5.55-8.15,8.16-3.2,4Z" transform="translate(-559.97 -101.01)"/><path id="TN" class="cls-1" d="M2700.84,1024.32l-159,27.91-48.21,9.27-14.14,2.69-11.95.84,0.93,12-25.83,3.51-21.3,3.66-34.23,2.82,0.58,18.07-5.09,19.88-2.35,9.55-3.11,13.84-0.38,8.06-11.93,8,5.34,10.63-1.95,13.7-2.8,2.67,22.35-2.34,73.88-11.76,16.43-1.78,24.83-3.43,85.2-14.65,31.2-4.93,25.76-5,25.67-5.51,14.77-3.66-1.48-13.89,5.14-4.92,8.33-2.65,1.1-11.63,12.31-9.49,11.63-5.42,12.12-12,13-7.53,1.85-11.09,12.45-13,2-.65s0.27,3.49,2.77,3.3a27.35,27.35,0,0,1,6.06.53l6.13-11.52,6.33-2.5,7.06,0.46,4.14-11.36,6-7.44,1.62-3.13-0.4-12.18-4.65-.53-7,6.57-24.41,2.4-36.57,8.74Z" transform="translate(-559.97 -101.01)"/><path id="RI" class="cls-1" d="M3213.43,547.3l-2.5-12.86-3.54-13.28-6.65-17.8,17.34-6.12,5.26,3.11L3234.86,513l10,13-8.62,5.44-4-.19-3.07,5.76-7,6.57Z" transform="translate(-559.97 -101.01)"/><path id="CT" class="cls-1" d="M3210.77,548.21l-2.94-12.83-3.54-13.28L3197.86,504l-12.6,3.79-66.21,20,2.79,10.07,6.23,22.1L3130,584.9l-2.95,7.26,6.16,6.07,14.48-11.69,10.2-10.83,5.48-7,2.65,1.8,8.13-5.15,15.7-4.73Z" transform="translate(-559.97 -101.01)"/><path id="MA" class="cls-1" d="M3292,522.66l6.54-2.64,1-5.4,3.2,0.11,3.72,6.81-3.77,1.71-12,1.28Zm-28.74,4.72,6.43-8.66,4.94-.38,6,4.15-7.16,3.75-6.46,3.7Zm-112.67-59.52,52.88-17.16,6.83-2.54,5.71-10.48,11.13-6,10,12.93-6.24,16.55-0.65,4.57,6.61,7.52,3.3-2.77,5.49-.43,7.61,7.44L3266.58,495l11.09,0.64,6.75-3.54,5.06-5.91-3.15-8.29-6.87-4.49-4.3,2.84-3.3-3.76,1.38-1.61,6.45-1,5.68,2.07,6.57,7,3.69,8.75,1.58,7.41-12.62,5.5-11.51,6.92-10.89,14.9-5.64,5-0.23-3,7.14-5.07,1.07-5.6-3.23-9.29-8.63,5.19-2.15,4.68,2,6.87-6.14,3.58-9.56-13.31-11.52-12.66-6.82-5.1L3198.79,501l-15.46,4.46-66.21,20-2.43-15.16-0.54-32.84,15.75-4,20.65-5.62" transform="translate(-559.97 -101.01)"/><path id="ME" class="cls-1" d="M3340.53,219.19l6.49,6,7.88,10.93,0.47,6-5.36,15-5.83,2.46-9.74,10.29L3320.78,288l-4,.31c-2,.16-3.5-6.25-3.5-6.25l-5.45.93-2.64,4.72-7.14,5.07-2.64,4.72,5.34,4.1-1.34,2.11-0.84,8.6-6,0-0.39-5-1.31-3.91-4.41,1.35-6.26-9.55-6.18,4.5,4.34,4.18,1.27,3.42-2.18,4.19,1.73,9.4,0.89,5-4.37,8.37-8.86,2.19-0.3,9.06-15.73,10.76-3.88,1.81-5.34-4.1-8.63,11.71,3.77,9.75-4.18,4.34,0.55,13.51-2,19.59-7.88-3-2.23-9.36-12.25-2.56-1.66-8.4L3179,318.86l-16.23-41.09,4.36-.71,4.77,0.9-0.62-8,1.18-17.16,6.86-15.09,3.52-12.82-6.57-7-1.43-18.46,2.26-3.19,1.84-8.68-0.85-4.45-1.66-14.93,4.33-15.39,6.85-28.14,5.48-13.48,4-.31,4,0.19,0.27,3.49,4.53,6.68,8.64,1.34,2.3-2.69-0.23-3,11.78-9.95,5.06-5.91,4.53,0.15,19,6.05,6.22,2.53,35.11,90.13,18.46-1.43,3,5.79,1.66,14.93,9.52,6.29,2.49-.19,0.38-1.54-1.77-3.38Zm-57.38,98.06,4.37-5.11,4.49,2.91,2.33,7.35-5,3.15Zm19.29-19.82,5.93,5.31s4-.06,3.93-1.06,0.26-6.29.26-6.29l2.55-2.71-2.92-5.29-6.06,2.73Z" transform="translate(-559.97 -101.01)"/><path id="NH" class="cls-1" d="M3225.23,430.26l2.42-3.53,2.58-10.42-8.07-2.21-2.23-9.36-12.25-2.56-1.66-8.4L3178,323.17l-17.69-43.78-2.77.2-1.61,5.14-2.11-1.34-3.23-2.76-4,6.34,1.06,15.54,2.32,17.42,6.65,8,1,12.47-10.26,16.52-7.71,4.11,0.27,3.49,3.92,5.22,2.05,26.44-0.29,28.63,0.66,15,3.3,3.76,0.59,14-1.07,5.6,4.7,2.39,49.46-18.4,6.83-2.54,4.12-8.25Z" transform="translate(-559.97 -101.01)"/><path id="VT" class="cls-1" d="M3115.42,473.88l-3.85-17.27-9.77-30.2-2.07-.84-9.29-3.29,1.8-9.17-3-6.29-9.45-13.67,2.06-12.21-3.73-15.77-9-19.38-3.67-15,79.39-27.12,2.4,17.88,6.65,8,1,12.47-10.51,13.37-7.71,4.11,0.27,3.49,3.92,5.22,2.05,26.44-0.29,28.63,0.66,15,3.3,3.76,0.59,14-1.07,5.6,2.41,4.68-21.13,5.91Z" transform="translate(-559.97 -101.01)"/><path id="NY" class="cls-1" d="M3075.43,587.82l-3.73-2.72-8,.12-7.45-5.44-6.5-18.53-10.65,1.11-8.19-7.77-58.78,18.17L2841.48,610l-22.94,5.6-3.83-19.79,4.14-3.82,3.72-3.8,2.61-5.22,5.22-3.92,5.56-6,1.11-5.11,5.83-9,3.26-3.26-0.73-3-4.73-9.17-5.53-.07-7.46-18.49,8.55-6.19,13.12-5.54,12.16-5,9.86-2.27,19.42-2,6.3,3.53,5,0.11,6.18-4.5,7.71-4.11,15.85-2.74,6.06-6,4.71-10.41,4.52-6.37,6.49-.5,5.72-4,0-7-5-6.14-1.35-4.41,3-6.76-0.35-4.49-5.49.43-5.68-2.07-2.77-3.3-1.12-7.94,16.64-18.36,1.8-2.65,3.79-9.33,7.9-14.67,7.59-12.13,5.9-8,7-6.21,9.21-4.58,16.65-5.31,10-.28,13.62-5.58,22.85-8.21,2.8,15.24,9,19.38,3.73,15.77-2.06,12.21,9.07,13.35,3,6.29-1.8,9.17,9.29,3.29,2.07,0.84,12.12,33.19-0.44,15.74,1.1,33.55,3.81,16.77,3.35,10.78,6.23,22.1,1.94,24.95-3,7.26,6.15,5.71,2.86,5-5.56,6,1.31,3.91,3.91-1.31,4.18-4.34,6.37-8.53,3.34-2.27,5.14,1.61,7,0,23.52-13.87,8.32-9.18,3.64-4.8,13.36,4-9.63,11.79-11.28,9.91-20.67,18.17-7.75,3.61-17.5,7.38-12.2,4.46-3.75-1.36L3123,616.51l0.84-8.6-1-6.45-9.09-4.57-14.2-1.91-12.25-2.56Z" transform="translate(-559.97 -101.01)"/><path id="NJ" class="cls-1" d="M3074.25,590.74l-5.9,8,0.74,9.48-5.25,9.95-0.11,5,4.3,3.68,0.08,7.52-6.71,4,3.15,8.29,0.77,3.45,8.56,0.34,3.61,7.75,11.56,6.63,7.87,4.41,0.19,2.49L3087.87,682l-4.45,7.37-3.83,8.83-6.68,4.53-3.57,2.54-0.46,3.8-1.26,8.19,3.91,6.66,10.68,8.21,15.51,5.82,12.63,1,0.85,4.45-2.26,3.19,1.66,8.4,2.49-.19,5.9-8,1.33-15.16,7.51-13.13,7.93-20.69,2.17-17.24-2.27-3.34-2.75-28.9-5.8-10.09-3.3,2.77-8.4,1.66-1.61-1.38,3.26-3.26,6-6.49-0.07-3.39-2-10.51,0.84-8.6-1-6.45-8.25-2.87-14.2-1.91-12.25-2.56Z" transform="translate(-559.97 -101.01)"/><path id="PA" class="cls-1" d="M3064.54,703.67l3.34-2.27,6.84-2.43,3.83-8.83,4.45-7.37,9.24-10.26L3092,670l-7.87-4.41L3072.61,659l-3.61-7.75-8.56-.34-0.77-3.45-3.15-8.29,6.71-4-0.08-7.52-4.3-3.68,0.11-5,5.25-9.95-0.74-9.48,6.65-8,0.4-3.4-8,.12-7.45-5.44-8.76-15.88-9.5-2.15-7.71-6-56.41,16.93-130.63,37.25L2815,619.41l-3.23-21.74-15.59,18.69-3.88,1.81L2780,628.46l13.57,58.37,10,29.43,15.64,58.59,9.94-2.75,36.5-7.5,115.22-32.75,45.24-12.28,25.23-7,0.77-.8,6.1-5.49Z" transform="translate(-559.97 -101.01)"/><path id="DE" class="cls-1" d="M3065.94,715.87l1.31-6.63-0.22-3.72-3.94,0L3057,711l-4.14,4.84,5.5,12.62,8.34,16.92,8.81,29.43,6.5,19.07,15.43-1.7L3116.1,787l-8.75-22.16-2.88,1.73L3092.91,760l-6.61-14-6.84-10.51-7.22-2.45-7.34-10.47Z" transform="translate(-559.97 -101.01)"/><path id="MD" class="cls-1" d="M3117,789.16l-18.64,5.46-17.88,1.89L3073,775l-8.81-29.43-8.34-16.92-5-13.27-22.78,6.81-45.24,12.28L2869.07,766.8l4.69,15.2,4.35,17.23,0.92-1.08,5.91-8,6.36-8.62,7.34-2.48,4.14-4.84,4.87-8.41,4.15,1.69,8.9-1.7,7.48-7.11,5.85-5,5.58-1.94,5.35,3.09,9.33,3.79,6.41,5,4.11,4.45,13.13,4.25,0.7,9,17.27,2.67,3.66,1.4,3.87-6.6,9.37,5.39-3.35,8L3008,804.69l-4.87,8.41,0.5,6.49,2.42,5.33,16,3,13.29-1.22,9.71,2.26,6.56,0.49,2.49-6.72-5-6.14-0.43-5.49-8-5.9-7.8-16.46,2.71-16.78-1-6.45-4.3-3.68s4.1-5.34,3.95-7.33,1-6.6,1-6.6l5.68-4.46,5.6-5.45,1.73,2.88-4.1,5.34-3.1,11.79,1.27,3.42,5.57,0.57,2.81,16.85-6.25,3.5,1.85,10.9,1.46-.62,3-6.26,5.42,5.1-4.68,4.38-0.18,10.56,8.8,9.86,12.09,0.57,4.8-2.88L3088,826l4.32,1.33,19.87-10.23,5.23-12.9Zm-49.18,31.72,4.09,7.46,0.93,5.45,3.94,5.47s2.53-3,2.45-4-3-9.31-3-9.31l-2.81-7.06Z" transform="translate(-559.97 -101.01)"/><path id="WV" class="cls-1" d="M2865.64,767.27l4.62,15,5,21.06,10.33-9.34,6.25-10,7.69-2.51,4.14-4.84,4.87-8.41,3.8,1.71,8.9-1.7,7.48-7.11,5.85-5,5.58-1.94,4.27,2.82,7.15,2.91,6.41,5,4.55,3.66,0.68,14.45L2945,775l-14.4-4.4,0.78,16.5-1,6.6-4.33,8.87-1.61,5.14-8.9,8.22-1,7.1-10.4,1.81-0.26,9.56-2.18,17.24-8,.62-4.19-2.18-5.65-8.09-5.45.93,0,13.55-4.9,21L2860.77,912l2.8,3.8,0.16,8.52-6,6.49-4.57-.65-9.4,8.26-8.22-2.37-4.36,14.9s-11.28,3.39-13.24,4-7.79-3.41-7.79-3.41l-6.94,7.57-7.83,2.62-9.17-1.8-4.3-3.68-7.49-8.81-10.18-5.38-8.64-7.86-9.87-10.78-2.54-6.83-8.33-3.87L2732,908l-2-16.16,6.72-.77,5.79-3-0.16-8.52,4.64-4.88-0.7-15.51L2748.3,847l3.84-2.31,4.26,3.18,1.92,5.37,5.26-3.42,1.11-5.11-3.92-5.22-0.58-7.48,2.68-4.22,6.17-11,3.64-4.8,6.6,1,6.6-5.53,8.67-11.21,6.06-12.52-0.36-17.54,0.3-15.58-1.12-14.47-4.23-9.21,2.64-4.72,3.65-4.3L2817,778.19l14.11-3.43Z" transform="translate(-559.97 -101.01)"/><path id="KY" class="cls-1" d="M2771.7,948l-6.53,8.84-12.12,12-11.86,19.25-5.06,5.91,0.5,6.49-11.47,7.42-16.65,11.83-10.77,2-158.91,27.55-48.21,9.27-14.14,2.69-11.95.84,0.31,13.08-25.21,2.41-21.3,3.66-32.14,3.14,5.85-1.14,6.31-6,6.08-4-0.06-9.93,2.38-5.86-5.57-7.45,2-6.08,6.56-6,6.33-2.5,8.79,3.33,11.29,3.14,3.42-1.27,0-7-4.57-7.17,0.46-7.06,5.64-5,7.83-2.62,4.83-2.38-2.92-5.29-2.46-5.83,3.3-2.77,2.45-10.48,8.82-6,17.73-4.39,10.86-2.35,5,5.64,5.68,2.07,4.71-10.41,8.63-5.19,6.37,4.52,2.77,3.3,6.37-2-1.31-10.44,8.59-5.69,3.3-2.77,3.88,4.72,14.47-1.12,2-6.68-1.54-6.91,8.13-11.67,13.54-13.1,0.41-14.09,8.4-1.66,11.55-6.42,8-6.65-1.46-5.91-4.84-4.14,1.22-6.87,12.67-1.74,7.29-3.08,9.37,4.29,6,13.08,18-.4,5.91,5.06h6.53l7.14-5.07,9.6,0.76,4.34,4.18,7.86-8.64,5.18-4.42,5-.39,2.65,8.33,5.72,2.57,8,6.26,1.82,16.93,2.88,4.8,8.33,3.87,2.54,6.83,9.87,10.78,8.64,7.86Z" transform="translate(-559.97 -101.01)"/><path id="OH" class="cls-1" d="M2776.84,628.36l-17.84,14-11.43,7.92L2738,662.54l-11.54,12.94-9.79,3.27-8.86,2.19-16.34,9.3-6.45,1-11.21-8.67L2658,685.82l-8.33-3.87-7.67-3.6L2627,681.69l-31,7.43-23.66,5.6,7.5,44.84,8.78,42,13.6,71.73,2.9,14.78,12.69-1.39,7.29-3.08,10.74,3.83,7.44,13,15.86-1.28,6.35,6.09,5.42-.62,7.51-4.75,7.82,0.55,6.44,4,4.82-7,6.93-4.55,6.23-2.6,2.65,8.33,5.72,2.57,11.29,6.4,6.72-.77,3.26-3.82-0.53-4.26,4.64-4.88-0.7-15.51,2.06-12.21,4.35-4.81,4.91,2.43,2.84,3.54,3.7-.83-1.88-7.34-1.9-1.85-0.58-7.48,2.68-4.22,6.17-11,3.64-4.8,6.6,1,6.6-5.53,8.67-11.21,6.06-12.52L2797,764.61l0.3-15.58-1.12-14.47-4.23-9.21,2.64-4.72,2.61-3.17-6.7-30Z" transform="translate(-559.97 -101.01)"/><path id="MI" class="cls-1" d="M2287.37,315.67l5.15-6.79,6.51-3,15.65-13.28,6.92-2.31,1.52,1.3-14.64,17.11-9.77,6.79-6.13,3.32ZM2561,394.17l2.6,7.58,10-.28,3.7-4.05s-0.6-4.47-1.63-4.89-5.44-5.35-5.44-5.35l-6.68,1.27-5,.89-0.73,3.57ZM2669,581.56l-12-24.67-9.16-27.4-8.26-9.4-8.41-4.87-4.72,3.88-11.55,6.42-4.79,15.93-7.59,12.13-3.34,2.27-4.65-1.65s-8.33-3.87-8-5.9,0.3-15.58.3-15.58l10.17-4.81,1.68-10.67,1.38-8.14,7.1-5.57-3.4-30.86-5.53-6.6-4.19-2.18-3-6.29,2.3-2.69,5.07,0.61,0.11-5-8-6.4-4.61-7.67-8,.62-14.32-3.41-17.78-9.16-8.48.66-1.84,2.15-3.11-1.26-10-6.25-8.55,6.19-8.44,7.68,1.85,10.9,3.07,0.77,6.6,1,1.69,2.38-7.79,3.11-7.91,1.62-4.06,5.84-0.49,6.56,1.39,4.91,2.32,16.89-10.47,7.34-2-.34-1-13,3.41-7.79,1.41-7.64-2.69-2.3-5.79,3-2,13.21-8.21,4.15-5,6.41-0.27,3,2.19,2.34-1.38,8.14-6.87,2,0.27,3.49,3.08,7.29-2,19.23-4,12.86,3.12,14.31,1.77,3.38-1.91,7.68-0.8,2.57-0.34,8.56,12.41,17.61,10.53,19.26,5.65,14.62-1.37,14.66-1.56,18.69-6.24,16.55-0.34,8.56-9.32,10.3,13.57-1.56,65.56-12.12,22.23-4.79,0.7,5.12,20.86-5.38,31.42-7.11,11.78-2.35,0.29-1.85,0.15-4.53,5.59-12,5.76-5.84-1.9-15.54,4.55-5.31,3.28-1.32-0.17-11,4-9.72,3.39,1.62,0.65,2,2.53,0.31,5.75-3.46ZM2250.76,409l2.07-2,8.29-3.15,10.43-7.84-0.23-3,1.84-2.15,18.23-4.43,7-6.57,13-7.53,0.19-4,5.29-9.45,5.29-2.92,3.57-5.8,6.44-7.53,12.89-8.53,14.35-2.62,3.76,3.22-0.77,3.07-11.24,3.89-3.75,9.83-6.79,3-0.92,7.6L2333,372.74l-0.38,8.06,2.61,1.3,2.72-3.73,10.28-9.83,4.3,3.68,7-.54,10.21,2.22,4.76,3.14,5.23,9.13,9.14,7.82,11.94-1.43,4.26-3.34,5.3,3.6,5.11,1.11,3.8-2.8,3.49-.27,4.76-3.38,11.62-11.95,10.21-4.31,20.38-2.59,13.51-7.07,7.67-4.61,4.53,0.15,1.36,17.46,1.57,0.88,9.17,1.8,5.87-2,18.57-6.46,3.22-3.76,4.61,1.15,1.67,21.45,10.72,8.7,4.15,1.69,4.22,2.68-3.91,1.31-2.57-.8-11.59-.61-6.33,2.5-7,0-9.63,5.27-5.49.43-18.27-2.6L2479.79,408l-5.37,8.45-21.3,3.66-7.29,3.08-2.76,9.75-3.72,3.8-1.54-.38-4.88-4.64-13.39,8.57-2,.16-3.88-4.72-2.46.69-4.94,13.94-2,12.71-8.14,22.37-3.88-2.91-4.48-2.85-8.46-31.29L2368,445l-6.88-6.56-38.07-5.56L2314,430.4l-25.92-4.73L2263.47,424Z" transform="translate(-559.97 -101.01)"/><path id="WY" class="cls-1" d="M1600.43,560.66l-32.75,0-99.83-2.48-50.59-2.46-88.48-5.9-62.1-4.4-1.7,34.83-6,75.8L1250,751.19,1247.8,784l-2.3,37.09,20.36,1.3,80.47,1.51,64,2.19L1524.88,830l74.21,3.12,3.31-137.47L1600.75,617Z" transform="translate(-559.97 -101.01)"/><path id="MT" class="cls-1" d="M1602.74,493.72l-0.67-34.57,1-77c0.21-15.63,1.31-26.41.54-47.89L1603,289.08l-95.35-1.31-91.16-4-91.28-5.46-101.07-8.71-57.69-6.06L1063.84,250l-8.71,67,12.39,22.46-3.14,14.44,6.74,13.67,10.21,3.47,16.84,32.13,9.08,9.16,1.69,3.42,10.86,2.71,1.9,6.24-17.65,56,0.6,7.76,8.53,9.28,2.82-.22,14.11-10.32,1.84-3.69,5.1,1.73,0.55,16.28,11.48,38.15,9.78,7,3,1.9,6.19,6.62-0.59,10.69,2.94,10.42,3.75,2.55,6.51-7.6,8.47-.66,10.26,4.17,7.54-3.43,12.7-1,11.67,4.06,8.36-2.07,0.7-9.28,9-2.83,4.56,3.9,2.18,9.77,5.82,3.79,2-36.06,64.58,4.21,87.95,5.45,51.54,1.89,97.88,3.13,34.29,2.07-0.45-47.87Z" transform="translate(-559.97 -101.01)"/><path id="ID" class="cls-1" d="M950.06,713.13L959.53,658l9.16-55.73,3.22-13.38L978.24,570l-4.43-6.75-7.73,1-2.72-3,1.14-3.64,0.32-9.61,12.44-18,5.54-1.85,3.25-3.8,1-10,2.66-2.34L1000.3,493l11-14.34-0.2-11.7-11.21-7.29-5.11-13.27-1.08-29.91,7.34-51.68,8.77-65.28,8.41-42.54,1.44-11.92,40.72,4.69-7.68,67.38,10.95,23.07-2.15,14.36,7.24,13.64L1079,372.7l16.12,29.2,9.23,11.14,2.18,3.38,10.86,2.71,2,7.73L1102,480.37l1.79,10.16,8.95,8.25,5.91,1,14-12.31,1-1.63,0.68,2.57,1.77,12.7,11.06,39.18,11.3,7.43,1.54,2.51,7.22,7-1.73,8.79,3,11.41,6.22,2.36,6.17-5.58,7.86-2.11,10.76,4.13,7.62-2.43,11.67-1.4,12.66,4,8.4-1.57,2.34-7.42,7.29-5.69,2.66,5,2.44,6.76,7.73,7.28-5.89,74.92-8.92,90.77h-12.91L1209,743.79l-30.71-3.29-38.11-4.43-39.27-4.72-26.62-3.65-29-2.93-28.93-3.29C945.52,713.5,972,716.09,950.06,713.13Z" transform="translate(-559.97 -101.01)"/><path id="WA" class="cls-1" d="M762.93,199l13.82,3.44,30.6,6.16,26.91,3.93,63.23,12.66,72.21,12L1017.3,244l-2.17,12.23-9.32,43.6L997,365.15l-5.93,50.58,1.16,29-41.62-8.86-48.87-6.71-42,5.12L854.49,430l-16,7.13-12.33.18-8.82-4.78-4.75,2-13,.3L793.46,431l-15.16-4.21-4.5-.29-15.71-2.9L753,428.68,735.3,429l-15.79-10.55,0.44-2.52-1.69-24.5-7.49-11.49-12.88-1.27-1.69-7.18-7.91-1.33-9-1L674,372.6l-7.68-8.44,0.3-9.06,8.4-1.66,4-12.86-8.25-2.87-0.39-11.51,13.32-3-9.14-7.82-6.2-21.6,1.3-9.14-1.9-24.45-6.26-9.55,4.74-29.48,6.6,1,8.18,8.4,9.1,7.32L700.59,243l14.47,5.4,9.64,1.26,9.33,3.79,10.71,2.18,6.95-1-0.58-7.48,3.72-3.8,6.18-4.5,1.27,3.42,1.42,5.41-6.87,2-0.49,6.56,5.84,4.06,4.07,7.21,2.46,5.83,4.45-.85,0.19-4-3.3-3.76-2.27-9.86,2.07-5.68-2.34-4.34-0.54-7,4.64-11.4-4.11-7.71-8.65-14.39,0.8-2.57Zm-27.75,20.72,6.2-1,1.83,4.12,4.35-5.36,7.23-.56,2.86,4.55-4.33,5.61,2.19,2.34-1.76,6.41-4.14,1.58s-2.72.46-2.8-.54,3.87-8.33,3.87-8.33l-5.37-1.34-0.65,4.57L742.56,234l-5.28-6.62Z" transform="translate(-559.97 -101.01)"/><path id="TX" class="cls-1" d="M1654.53,1145.16l70.29-2.09,96.24-3.93-1.58,73,3.44,56.1,0.71,6.41,14.32,10.74,5.56,2.12,5.64,0.35,1.82-4,3,2.46,5.48,1.07,4.78-2.64,3.61,1-0.1,10.58,13.44,2.16,8.45,1.9,12.33,0.67,7.21,5.12,9.65-5.64,8.69,0.46,6.94,8.12,3.39,0.73,0,6.1,9.81,2.86,8.11-6.23,4.74,0.76,7.3-.07,1.79,5.68,14.8,5,8.15-1.27,5.15-13.18,1.05-.08,4,5.58,13.93,2,10.59,2.94,10.34,1.54,6.45-2.84,2-8,11.43-.89,6,1.87,9.08-5.6,2-.16,1.39,3.37,13.2-1,7.11-4.45,5.22,0.52,4.82,5.44,9.29,4.46,11.13,2.47,8.81,3.72,7.94,4.42,10-3.54,6.23,2.57,4,31.17,3.36,29.86,4.4,29.26,2.59,12.36,9.36,13.55,4.29,12.29,13.43,18.49,2.39,8.76,1.86,3-0.32,23.3-7.13,14.18,3.64,8.6-0.52,7.85-0.86,22.78-3.58,8.72,2.92,13.39-17.1,6.25L2153,1604l-2.53,6.22-7.52,6.61-6.14,5-3.8,2.8-16.18,17.82-8,7.15-15.69,11.26-16.88,8.84-18.64,12-5.14,4.92-17.11,12.37-10.32,2.81-10.66,17.89-12.4,2-2.53,6.22,7.45,5.44-3.17,17.31-2.91,14.28-2.56,12.25-1.41,14.16,3.08,7.29,7.15,21,4.47,18.73,6.15,8.06-2.64,4.72-9,6.72-18.39-10.62-17.24-2.18-3.88,1.81-10.13-1.22-13.71-8.47-16.24-2.25-24.26-8.66-7.42-11.47-5.54-19.65-10.44-5.21-2.54-6.83,1.84-2.15,0.18-10.56-4.15-1.69-2.23-2.84,2.95-13.78-5.53-6.6-10.29-3.22-11.52-12.66L1835,1710l-13.59-7,0-6L1802,1660.34l-3.5-12.78-6-5.56-0.85-4.45-19.74-15-8.72-8.86-0.27-3.49-8.49-5.87-21.23-1.86-23.11-.21-10-6.25-13.54,6.57-10.63,5.34-6.21,10.52-2.1,11.71-12,20-6.9,8.07-8.22-2.37-5.76-3.07-6.14-1.53-12.52-6.06-0.16-2-6-5.56-16.47-5.25-24.81-22.17-8.11-13.93-1.94-24.95-11.53-19.18-2.16-8.37-5.22-2.61-4-6.21-16-5.28-4.38-4.68-23.85-22.74-4.77-9.67-15-5.86-5.54-13.12-8.68-8.36-6.1-1-3.13-14.28,24.86,0.2,90.27,1.51,90-2,1.36-73.93-1.32-172.4L1654,1145l4.24-.24M2019.8,1843.2l-3.45-21.82-10.21-21.54-3.43-21.57,2.76-25.81,8.58-22,9.43-17.55,8.88-11.73,2.05,0.59-13.13,21.6-11.9,21.25-4.65,20.94,0.24,16,4.22,18.75,9.71,21.58,2.74,15.85,0.85,4.45Z" transform="translate(-559.97 -101.01)"/><path id="CA" class="cls-1" d="M987.36,1362.73l11.66-2.42,4.1-6.56,1.79-6.17-9.83.48-3.82-5.18,2-5.48-1.62-19,6.53-4.63,7.71-8.62,0.09-15.27,4.24-11.19,5.49-7,9.68-6.08,3.77-2.56,2-4.76-2.89-2.55-3.33-4.43-4.17-16.28-10.22-15.47-0.37-8.62-7.57-9.5-51.86-68.1-66.86-84-77.14-96.58L762.84,895.6l3.82-22.68,14.81-81.72,17.51-99-39-7.33-42.45-7.35-39.8-9.69L654,663.32l-36-6.43-22.34-5.75-3.74,15,1.28,23L580,726.75l-8.86,8.72L570.46,739,565.17,742l-3.48,13.32L560,765.45l9.49,12.31,6,12.59,4.35,10.71,0.55,20L575.6,831,575,849.12l-2.1,11.71,6.42,11.55,9.57,13.31L597,900.11l5,12.16-0.22,10.06-0.88,1.57,0.5,6.49,19,18.1-0.92,7.6L618,963.24l-1.53,6.14,2.48,25.41,7.38,11,6.61,7.52,8.6,0.84,3.65,8.25-2.64,11.25-6.1,5.49-3.49.27-1.56,12.17,2.19,8.86,11,12.7,6.27,16.08,5.61,14.12,4.73,9.17,11.87,17.15,5.11,7.63,2.19,8.86,5.22,2.61,0.58,7.48-2,6.18-3.78,22.38-1,6.1,8.14,7.9,13.09,0.49,14.4,4.4,12.48,5.56,9-.7,9.72,8.78,9.15,14.35,4,6.71,12.48,5.56,15.16,1.33,5,6.14,2.77,9.82-4.34,2.34,1.23,2.92,10.17,1.72,8.52-.16,10.1,13.77,13,12,3,6.79,9,12.35,1.77,9.9,2.25,28.94,1.92,5.37,31.28,2.09,61.53,3.75ZM704,1230.37l4.36,4.43-0.19,4-10,.53-2-3.61-2.34-4.34Zm6-.47,3.59-2.29,11.48,5.63,9.77,3-2.59,2.21-14,.34-5.38-4.6Zm68.61,56.16,6.05,6.81,2.73,2.8,4.88,1.38,1.4-4.63-3.42-5.26-8.72-5.6-3.2.75Zm-2.42,27,6.24,9.3,4.21,5.7-4.43,1.1-4.28-3.43s-2.59-4.32-2.69-5.56l-0.52-6.74Z" transform="translate(-559.97 -101.01)"/><path id="AZ" class="cls-1" d="M990.64,1364.79l-7.59,7.29-0.65,4.57,1.73,2.88,60.93,28.4,39.24,20.54,47.46,22.92,54.29,26.9,38.5,4.54,78.2,2.32,4.81-39.21,5.05-85,8.82-164.88,5.72-96.59-76.8-5.46-85.06-7.59L1060.61,1075l-4.68,56.54-1.3,1.52-4.66,8.53-7.79.25-4.54-8.17-8.55-.4-3.1-3.31-2.82.22-2.69,2-5.75,3.64,1.32,21.55-0.29,5.35,1.25,38.95-4.07,7.06-1,10.37,9.65,14.51,5.28,17.69,2.72,3,3.31,1.52,0.2,7.08-4.61,4.62-10.17,6.11-5.53,6.46-3.71,11.65-0.59,15.31-8.16,9.15-6.19,2.61,1,18-1,5.4,1.6,2.36,11.43,0.89-1.11,8.6-4.07,7.06Z" transform="translate(-559.97 -101.01)"/><path id="NV" class="cls-1" d="M949.3,716.18l65.83,8.89,30.45,3.67,29,3.43,20.81,3.46-0.32,18.24-6.78,54.33-7.84,62.65-3.67,30.46-3.52,41.51-5.8,51.42-7.11,49.25-3.63,31.89-3.59,52.35-1.15,3.5-2.72,7.88-5.81.1-4-8.2-8.59-.9-4.54-2.7-6.21,1.48-2.65,2.48-3.69,4.48,0.33,21.63-1.29,5.42,1.63,37.42-3.67,5.61-6.33-6.53-50.26-66.73-66.94-85-78.32-99-42.67-54.38,3.48-20.66L785,791.93l16.83-98.64,105.68,17.07,43,5.88" transform="translate(-559.97 -101.01)"/><path id="UT" class="cls-1" d="M1327.52,1095.83l-76.89-4.81-83.16-8.73-105.85-10.47,2.71-28.64,6.23-47.69,6.26-52,3.44-42.5,3.86-28,6.74-64.06,6.74-54.83,2.1-17.47,39.79,3.92,37.54,3.47,32.19,3.18,26.08,2.23,11.47,0.6-2,33.17-4,41.21,24.32,1,51.07,1.64,25.55,0.67-1.31,68.31-4.47,70.41-4.91,86.78-2.48,34.68Z" transform="translate(-559.97 -101.01)"/><path id="CO" class="cls-1" d="M1702.73,903.64l-0.66-66-99.79-1.76-76.15-2.47-116-3.77-64.46-2.8-2.8,69.08-4.51,69.92-4.87,87.28-2,34.64-0.11,8.59L1437,1099.9l117.5,4.12,99.4,2.11,51.46-1.37" transform="translate(-559.97 -101.01)"/><path id="NM" class="cls-1" d="M1448.53,1464.43l-3.48-18.74,26.8-.45,91.83,2.38,88-2.36,0.71-69.4-1.9-173.35-1.19-60.11,6.3,0.6-2.7-34.18-100,.3-115.07-4.81-107.36-4.44-5.59,95.94-8.74,165.87-5.13,84-3.13,41.57,48.19,2.43,1.59-31.24,52,4Z" transform="translate(-559.97 -101.01)"/><path id="OR" class="cls-1" d="M948,713.53l9-56.28,10.11-56.3,2.23-13.31,5.92-17.92-2.18-3.44-7.77.46-4.36-4.85,1.06-4.63,0.78-10.14,12.44-18,5.38-3.83,3.25-3.8,3.73-11.36,11.13-18.47,10.08-12.78-0.12-10.71L998,461.34l-4.81-13.63-41.76-8.38L904,432l-47.6,4.05-1.74-4.12-16.44,7.67-13.9-.7-7.79-4.36L812.8,437l-14.52.42-5.62-3.82-16.72-5.09-2.44.54-13.76-3.55-5.56,6.11L735,432l-19.33-11.28,1.92-2.63-1.16-24-8-11.45-12.84-.78-2.72-7.6-7.38-.88-17.4,7.74-5.44,20.5-7.58,31.71L646.71,454l-12.1,44.61-16.7,43.46L596,583l-5.29,9.45L590.26,619l-2.56,18.77L596.9,648l21.31,5.33,36.57,7.38,24.88,6L718.85,675l42,7.88,41.5,7.85" transform="translate(-559.97 -101.01)"/><path id="ND" class="cls-1" d="M1957.84,482.89l-2.92-23-7.89-22.1L1938.1,396l-3.77-30.23-6.89-9.12-6.22-16.13-2.47-31.75,1.19-12.16-7.85-16.46-87.86,5.07-57.53,2.46-82.14,2.36-77.45.17-0.48,44.22-0.62,46.9-1,77.54,1.14,34.13,176.26-2Z" transform="translate(-559.97 -101.01)"/><path id="SD" class="cls-1" d="M1980.54,715.59l-3.2-3.11-5.56-10.83,4.76-11.86,1.91-17.4-8.47-5.73-1.57-8.4,1.11-9.39,6.44-3-0.46-17.77-7.42-92.84-2.62-9-13.56-10.09-3.51-5.9-0.46-5.93,5.55-4.4,4.28-6.09-0.09-8.44-177.49,8.82-174.31,1.47-1.1,16.48-1.17,49.36,0.15,55.71,1,76.3,49.71-.67,60.88-1.18,55.85-.29,73.7-1.68,33-5,9.38,6.37,14,8.14,3.21,2.09,10.72-3.6,12.42-1.89,8.45-.87,9.9,3,14.38,3.35,10.09,4.68,2.37,5.78,3.28,5.64,2.06-1.66Z" transform="translate(-559.97 -101.01)"/><path id="NE" class="cls-1" d="M2026.38,848.06l4.88,7.93,0.79,6.54,8.16,10.94,9.15,9.08-15.58,1.21-134.43,7.53-126.1,7-65.64,2.12-1.8-66.08-103.68-.47L1605,697l48.23-.55,62.37-1.3,55.31-.75,73.66-2.17,33.05-4,6.9,6.56,15.53,8,3.75,2.55,13.08-5.28,11.89-2.34,8.41-1.36,6,3.8,15.91,3.73,9.56,4.23,1.79,4.83,3.32,6.13,5.64-.44,2.47,0,4.28,15.85,10.39,24.11,4.93,14,7.48,11.28,2.81,15.11,5.47,12.85,3.25,19.84" transform="translate(-559.97 -101.01)"/><path id="IA" class="cls-1" d="M2269.66,688.31l1,6,7.33,3,3.82,3.6,1.36,3.81,12.76,9,2.64,6.54-1.78,9-3.74,11.3-1.81,8.65-6.32,5.47-5.16,2.18-16.57,5.9-1.57,7.21-1.92,7.24,2.1,4.1,5.71,4.88,0.87,11.3-6.31,5.46-1.06,4.7,0.6,7.77-4.48,1.77-5,4.64-1,4.69,1.82,5.19-4,4-7.72-7.76-5.21-7.75-25.55,4.47-31.26,4.2-77.11,8.12-40.18,3.83-28.88,3-4,.69-6.18-13.4-2.3-20.41-5.93-12.32-3.38-16.06-7.93-10.74-4-14.6-10.28-22.63-4.82-16.31-4.75-6.37-5.6-8.08,4.6-13.85,2.86-18-9-5.69-2.07-8.36,2.22-8,5.29-.41,35.63-2.77,153-14,61.18-6.88,6.37,8,6.28,7.65,1.6,2.37-5,8.92,2.42,12.92,8.69,11.39,9.6,4.92,7.48,0.13Z" transform="translate(-559.97 -101.01)"/><path id="MS" class="cls-1" d="M2512.18,1493.36l-0.48,3.94-16,1.24-4.68-2.15-6.56-.49-20.49,7.62-5.68-2.07-7,13.59-3.22,2.67-4.07-7.41-4.46-11.72-11.35-9.06L2430,1466l-2.34-2.66-5.59,1.14-25.24,4.09-74.63,7.93-1.79-4.83,0.2-24.86,9.1-19.87,14-29.49-3.32-6.13,3.53-.27,1.35-10-7.49-5.1,0.27-5.7-7.45-13.62-2.16-16.43,3.6-8.53-2.28-13.31-4.95-8.84,3.9-4.56-4.73-6,1-5.75,1.34-19.27,8.52-9.18-2.61-6.19,10-17.11,8.25-3.48-0.6-7.76-2.45-4.07,7.21-16.89,8.19-4.19-0.49-10.56,26.76-2.32,73.88-11.76,14.08-1.8,1.55,19.66,4.49,51.35,4.95,96,2.87,43.45,13,57.22Z" transform="translate(-559.97 -101.01)"/><path id="IN" class="cls-1" d="M2453.41,982.14l-0.48-8.84,0.41-14.09,6.29-9.52,4.56-12.4,7-13.59-2.89-17.85-6.15-8.06-1.77-9.9,1.18-17.16-3.16-21.34-7.83-49.09-7.67-47.09-5.8-35.94,9.69,2,4.72,2.64,3.42-1.27,6-6.49,8.35-5.67,15.68-1.72,67.31-12.26,17.08-3,8.46,48.89,22,112.69,3.23,17.67-0.6,7.07,4.22,5.25,0.63,4.21-7.4,5.54-10.55,5.64-9.75,2.47-0.68,15.16-13.33,11.32-7.67,13,1.57,7.26-1.43,4.87-10.27.8-5.28-4.61-7.39,4.49-7.92,5.28,1.23,9.39-3.62,1.08-1.69-3-7-4.12-9.71,4.92-4.07,9.65-4.63-2.15-4.87-4.59L2479,972.32l-17,4.33Z" transform="translate(-559.97 -101.01)"/><path id="IL" class="cls-1" d="M2451.69,984.59l-0.86-11.13-0.37-15.08,6.58-10.25,4.59-12.05,7.06-12.54-2.41-16.12-7-10.45-1.1-10.31,0.88-16.43-4.27-22-7.07-48.44-7.59-46-5.64-35.7-1.06-2.78-3.11-7.79-4.88-11.17-5.42-5.1-5.11-7.63-2-16.88-30.25,6.42L2299,685l-26.92.76,1.27,7.27,7.22,1.57,3.1,3.31,1.85,5.54,12.82,9.65L2301,720l-1.29,10.75L2295,742.43l-1.51,7.93-6.62,6.19-5.48,2.56-15.9,5.49-1.68,5.81-1.62,6.51,2.45,4.07,6,4.5,0.28,12.76-5.26,5.38-1.73,5.1,0.66,8.47L2259,819l-4.67,3.91-0.38,4.29,1.2,6.3-5,4.47-2.5,8.89,2.29,11.18,8.81,22,24.39,21.53,17.81,10,0.34,13.46,3.15,4,19.87-.12,8.8,3.58L2331.92,944l-5.63,18.89-1.35,10,8,11.45,21,14.69,14.28,1,7.56,15,7.12,9.39-2.11,9.39,5.93,12.32,6.14,5.91,5.81-2.91,1.6-6.84,5.94-4.93,9.72-4.17,9.82,2.9,9.13,2.6,2.39-.84-0.5-3.82-4-8.28,0.78-7.44,6.66-5.39,7-3.61,3.49-1.57-2.11-3.95-2.87-6.51,3.54-4.19Z" transform="translate(-559.97 -101.01)"/><path id="MN" class="cls-1" d="M1959.8,485.23l-3.44-26-7.4-22.14-8.88-41.19-3.77-30.23-6.47-10.15-6.15-15.14-2.47-31.75,1.19-12.16-6.93-16.39,93-7.11-1-25.52,2-.65,7.1,1,6.18,2,3.81,16.77,6,18.61,5.38,4.6,15-1.16,1.35,4.41,19.54-.51,0.5,6.49,15-1.16,0.69-4.07,3.22-3.76,6.83-2.54,4.22,2.68,9-.7,12.59,7.05,17,6.21,7.6,0.92,1.26-3.11,4.37-1.85,2.19,8.86,8.29,3.37,1.38-1.61,4,0.19,0.5,6.49,8.22,2.37,9.48-.74,4.8-2.88,9.2-10.75,7.87-2.12,2.92,5.29,1.81,3.88,3-.23,2.8-2.73,27.36-3.13,6.22,9.05,2-.16,1.94-3.52,13.61-2.21-1.34,7.18-11.72,6.61-27.56,14.75L2218.82,344l-8.86,8.72-6.63,11.56-6.06,12.52-5.29,2.92-12.77,16.55-4,.81-11.15,10-7.93,10.43v9.22l2.57,24-4.55,5.32-15.24,14L2134.66,488l8.65,10.66,2,7.67-2.83,9.45,0.18,11.35,3.11,21.75,11.56,11.85,9.18-.71,8.3,6.48,10.21,3.45,12.5,14.66,23.08,13.8,6.14,5.93,2,16.93-63.38,7.05-185.84,15.86-9.6-110-2.12-9.06-13.52-9.6-4-5.37-0.38-4.94,6-5.43,3.9-4.56Z" transform="translate(-559.97 -101.01)"/><path id="WI" class="cls-1" d="M2411.64,663.48l0.43-9.26L2406,640.64l-3.47-18.8-4.07-7.21,2.26-9.71,1.8-9.17,3.87-8.33-2.81-10.32-2.85-10.82,1.07-5.6,5.41-7.95-0.16-8.52-2.8-3.8,1.38-8.14,0.72-10.1,7.13-18.12,7.35-21.65,0-7-1.23-2.92-2.38,1.69-11.46,20.47-7.51,13.13-5.56,6-2,7.18-4.3,2.84-3,6.26-4.57-.65-0.93-5.45,3.41-7.79,5.36-15,5.1-5.42,2.85-7.34-5.25-2.4-4.56-3.9-7.41-31.37L2365.8,448l-4.78-6.73-39.47-5.45-8-2.93-26-5.08-25.68-1.55-14.16-15.68-1.33,4-3.53-.23-2.27-3.34-8.68-1.84-3.45.77-5.26,3.42-3.15-1.76,1.53-6.14,5.25-9.95,3.22-3.76-6.34-4-6.29,3-8.52,6.68-22.18,11.76-8.83,2.69-9.1-.8-3.24-2.48-5.85,9.26,0,8.52,2,26.11-3.14,5.21L2143.26,471l-5.63,18.89,1.47,0.6,8.26,5.75,2.88,9.71-4.88,10.32,0.93,12,3,20.35,9.89,8.46,10.58-.82,6.41,9.44,10.69,0.59L2200.23,583l22.86,11,7,8,4.6,22.71,2.91,10.07,7.44,4.39,1,4.18-5.53,11.08,1.47,9.82,8.69,11.39,8,2.93,9.28,0.7,4.47,3.94,28.31-2.2,80.1-10.84Z" transform="translate(-559.97 -101.01)"/><path id="MO" class="cls-1" d="M2247.8,838.74l-8.52-8.92-4.08-6.78-23.83,4-30.23,3.77-78.1,8.91-41.58,3.94-24.32,2.24-7,.9,4.48,7.46-0.16,7.11,8.69,11.39,10.51,12,10.18,7.73,7.11,0.16,4.45,2.49,0.71,9.17-5.26,5.38-0.86,7.17,7.17,10.09,8.47,8.57,8.2,5,7,35.66,6.35,109.18,1.83,14.41,2.7,16.51,72.29-6,71.46-7.68,64-7.46,35.92-3.5,7.52,10.05-1.32,10.37-9,8.16-1.33,5.81,16.71,0.12,11.86-3.05,4-17.37,0.61-18.23,6.67-6.81,4.93-5,6.1-3.67-0.33-8.86,1.36-5.43-3.6-5.15-8.44,1.1-7.32-7.58-5.25-12.72,1.87-8-6.82-10.11-6.75-13.68-15-1.32-22.85-15.61-6.29-12.28,1.7-10.07,4.9-19.19,0.73-8.95-6.26-2.72-21.35-.82-3.58-5-1.36-13-17.76-9.27L2256.41,881l-8.81-22-1.72-13Z" transform="translate(-559.97 -101.01)"/><path id="AR" class="cls-1" d="M2379.2,1124.83l-11.65,3.82-19.16.07,1.4-9.34,9.22-9.23,0.86-7.17-6.36-8.73-33.76,4-64,7.81L2184,1113.8l-71.86,7,6.58,20.78,2,25.4,6.86,33.54,9.78,116.72,7.52,5.45,8.84-4.95,8.74,2.87,3.8,31.76,70.6-5.92,58-7,31.19-3,3-6.73-1.74-10.89-6.35-8.74,4.58-5-5.54-7.37,1.51-7.91,2.88-17.63,7.28-7-2.66-6.89,10-17.46,8.14-4.88-0.71-4.58-1.5-5.55,7.48-18,7.12-4.45,0.36-10.67,5.17-4.26,1.63-13.27-5.1-12.06,11.9-8.3,1.21-6.36,2.79-13.47Z" transform="translate(-559.97 -101.01)"/><path id="OK" class="cls-1" d="M1708.39,1107.44l-33.1,1.15-20,0,0.84,0.56,0.33,32.34,68.13-.92,99.25-3.66-1.35,75.92,2.86,55.15,1.09,4.88,14.28,10.25,6.62,3,2.06-.87,1.62-6.52,4.67,5.32,6.35-.49-0.33-4.23,8.8,3.58-0.48,12.11,12.76-.28,8,2.93,12.87,1.13,8.2,5,6.56-6.9,10.75,1.29,8.58,10,2.82-.22,0.55,7.06,7.22,1.57,6.51-7.6,5.81,1.68,7.76-.6,3.43,7.54,15.26,4.49,4.07-2.45,4.66-13.14,3.53-.27,4,6.08,12.87,1.13,11.62,3.36,9.39,2.11,5.43-3.26,1.51-7.93,13.41-1,6.57,2.33,8-7,3.53-.27,2.5,4.77,12.7-1,4.45-6.73,5.75,1,7,7.27,10.32,4.88,10.1,2.06,6.26,3-10.12-114.77-6.86-33.54-2.62-27.34-6-19.83-4.12-22-1.13-11.76-37.38,3.89-143.35,9.71-139.5,4.45Z" transform="translate(-559.97 -101.01)"/><path id="KS" class="cls-1" d="M2104.17,1084.64l-38.9,3.66-142.36,9.64-138,4.33-76.32,2-2.73-200.74,67.58-2.76,125.22-5.47L2035,886.15l15.73-1.22,10.79,9.17,8.6,0,3,3.1,0.48,6.2-5.26,5.38-0.79,8.16,7.71,10.55,8.51,9.07,8.24,5.54,5.92,34.25Z" transform="translate(-559.97 -101.01)"/><path id="LA" class="cls-1" d="M2444.62,1517.31l-3.8-7.83-4.27-9.27-11.08-10.13,1.21-21.05-0.64-3.49-3.81,1.36-25.18,4.79-77.14,7.42-2.69-7.23,0.79-26.32,8.81-19.15,13.45-28-2.35-7.26,3.72-2.4,0.95-6.14-7.55-5.8-0.81-6-6.69-13-2.83-18.23-30,2.68-59.05,7.43-68.53,5.41,2.38,29.54,4.36,28.77,3,11.83,8.75,12.1,4,15.3,14.72,15.89,1.47,9.82,2.28,2-0.09,26.27-8,16.24,5.43,6-1.51,7.93-0.36,22.74-3.47,10.21,1.24,11.13,14.1-5.82,24.87-2.94,32.79,8.5,20.23,1.94,11.13-5.38,10.25,2.72,10.21,2.22,2-6.68-10.25-2.72-7.87,2.12-8.87-4.33s0.19-4,2.15-4.68,9.25-3.73,9.25-3.73l5.84,4.06,5.26-3.42,10.13,1.22,5.07,7.14,1.54,6.91,14-.09,5.91,5.06-2.11,5.18-3.8,2.8,5.38,4.6,26.8,9,10.67-4.84,2.41-7.72,7.83-2.62,5.14-4.92,4.22,2.68,3.19,8.79-6.79,3,2.15,1.84,10.17-4.81,6.17-11,2.38-1.69-6.56-.49,2.11-5.18-0.85-4.45,6.37-2,3.18-4.26,2.19,2.34s0.24,9.52,2.73,9.32,13.13,1,13.13,1l12.94,5,3.34,4.26,9-.7,3.73,2.72,6.25-10-0.35-4.49-4,.31-11.14-7.67-18.16-1.1-10.52-6.21,2.83-8.75,7.06,0.46,0.34-2-5.72-2.57-0.12-1.5,10-.78,4.75-9.91-4.46-5.68-1.66-8.4-4.45.85-5.48,7-1.38,8.14-9.63-1.26-3.42-5.26,5-6.41,5.81-6Z" transform="translate(-559.97 -101.01)"/><path id="path3433" class="cls-1" d="M3095.47,834.12l-0.91-6,19.31-9.42-1.61,10.12-8.11,12.36L3104,855.46l2.24,10.35-4.45,15.8-6.22,6.43-5.65-14,0.07-16.92,3.9-13.29Zm13.82,86.8-176.53,52.76-114.25,25.27-20.7.44-7.52,6.57-22.6,2.44-25.64,5-27.32,5.08,25-17.31-0.54-6.4,4.18-7,29.82-38,13.25,12.87,11.91,2.07,7.58-4.13,6.59-4.58,8.15,3.54,11.74-5.34,4.7-14.51,8.16,1,8.3-7.26,5.67,1.09,7.84-12,0.58-6.51-3.28-3.71,2.65-6,13.34-39.16,0.53-17.85,3.67-1.91,7.31,7,12.08-1.87,4.14-23.84,8.49-2.4,2.58-8.71,7.4-7.86,3.35-7.53,3.84-10.71-1-15.66,31.23,9.44c2.18,0.89.88-14.92,0.88-14.92l12.83,3.28-0.8,8.22L3002.8,789l4.42,5.23-1.8,11.57-3.58,4.39-1.14,5.51,2.1,7.3,6.35,3.48,12.44,3.52,9.33,2.28,15.21,1.74,7.14,5.93,9.94,0.48,3,3.5L3066,858.48l4.51,3.07-1,6.07,4,2.14-0.35,4.33-8.34.35,0.66,5,7.41,4.21,0.71,4.33,5.9,5.09,2.12,7.67-7.55,4.88,5.21,4.24,17.5-6.59Z" transform="translate(-559.97 -101.01)"/><path id="path1361" class="cls-1" d="M3008,793.09l-3.72-4.79-3.33-2.36,3-5.25,7.25,4.13Z" transform="translate(-559.97 -101.01)"/></g></svg>